<svg width="37" height="37" viewBox="0 0 37 37" fill="none" xmlns="http://www.w3.org/2000/svg">
<rect width="37" height="37" rx="4" fill="#3C3C42"/>
<path d="M25.5 13.5V11.5H23.5V9.5H25.5V7.5H27.5V9.5H29.5V11.5H27.5V13.5H25.5ZM17.5 24C18.75 24 19.8125 23.5625 20.6875 22.6875C21.5625 21.8125 22 20.75 22 19.5C22 18.25 21.5625 17.1875 20.6875 16.3125C19.8125 15.4375 18.75 15 17.5 15C16.25 15 15.1875 15.4375 14.3125 16.3125C13.4375 17.1875 13 18.25 13 19.5C13 20.75 13.4375 21.8125 14.3125 22.6875C15.1875 23.5625 16.25 24 17.5 24ZM17.5 22C16.8 22 16.2083 21.7583 15.725 21.275C15.2417 20.7917 15 20.2 15 19.5C15 18.8 15.2417 18.2083 15.725 17.725C16.2083 17.2417 16.8 17 17.5 17C18.2 17 18.7917 17.2417 19.275 17.725C19.7583 18.2083 20 18.8 20 19.5C20 20.2 19.7583 20.7917 19.275 21.275C18.7917 21.7583 18.2 22 17.5 22ZM9.5 27.5C8.95 27.5 8.47917 27.3042 8.0875 26.9125C7.69583 26.5208 7.5 26.05 7.5 25.5V13.5C7.5 12.95 7.69583 12.4792 8.0875 12.0875C8.47917 11.6958 8.95 11.5 9.5 11.5H12.65L14.5 9.5H21.5V13.5H23.5V15.5H27.5V25.5C27.5 26.05 27.3042 26.5208 26.9125 26.9125C26.5208 27.3042 26.05 27.5 25.5 27.5H9.5Z" fill="white"/>
</svg>
