<svg width="18" height="18" viewBox="0 0 18 18" fill="none" xmlns="http://www.w3.org/2000/svg">
<path d="M14.85 16.9496L11.7 13.8371C11.2625 13.9746 10.8219 14.0777 10.3781 14.1465C9.93438 14.2152 9.475 14.2496 9 14.2496C7.1125 14.2496 5.43125 13.7277 3.95625 12.684C2.48125 11.6402 1.4125 10.2871 0.75 8.62461C1.0125 7.96211 1.34375 7.34648 1.74375 6.77773C2.14375 6.20898 2.6 5.69961 3.1125 5.24961L1.05 3.14961L2.1 2.09961L15.9 15.8996L14.85 16.9496ZM9 11.9996C9.1375 11.9996 9.26562 11.9934 9.38438 11.9809C9.50313 11.9684 9.63125 11.9434 9.76875 11.9059L5.71875 7.85586C5.68125 7.99336 5.65625 8.12148 5.64375 8.24023C5.63125 8.35898 5.625 8.48711 5.625 8.62461C5.625 9.56211 5.95312 10.359 6.60938 11.0152C7.26563 11.6715 8.0625 11.9996 9 11.9996ZM14.475 12.3371L12.0938 9.97461C12.1813 9.76211 12.25 9.54648 12.3 9.32773C12.35 9.10898 12.375 8.87461 12.375 8.62461C12.375 7.68711 12.0469 6.89023 11.3906 6.23398C10.7344 5.57773 9.9375 5.24961 9 5.24961C8.75 5.24961 8.51563 5.27461 8.29688 5.32461C8.07813 5.37461 7.8625 5.44961 7.65 5.54961L5.7375 3.63711C6.25 3.42461 6.775 3.26523 7.3125 3.15898C7.85 3.05273 8.4125 2.99961 9 2.99961C10.8875 2.99961 12.5688 3.52148 14.0438 4.56523C15.5188 5.60898 16.5875 6.96211 17.25 8.62461C16.9625 9.36211 16.5844 10.0465 16.1156 10.6777C15.6469 11.309 15.1 11.8621 14.475 12.3371ZM11.0063 8.88711L8.75625 6.63711C9.10625 6.57461 9.42813 6.60273 9.72188 6.72148C10.0156 6.84023 10.2688 7.01211 10.4813 7.23711C10.6938 7.46211 10.8469 7.72148 10.9406 8.01523C11.0344 8.30898 11.0563 8.59961 11.0063 8.88711Z" fill="#5F6368"/>
</svg>
