<svg width="20" height="20" viewBox="0 0 20 20" fill="none" xmlns="http://www.w3.org/2000/svg">
<path d="M10 18.3332C8.86112 18.3332 7.78473 18.1144 6.77084 17.6769C5.75695 17.2394 4.87153 16.6422 4.11459 15.8853C3.35764 15.1283 2.76042 14.2429 2.32292 13.229C1.88542 12.2151 1.66667 11.1387 1.66667 9.99984C1.66667 8.84706 1.88542 7.7672 2.32292 6.76025C2.76042 5.75331 3.35764 4.87136 4.11459 4.11442C4.87153 3.35748 5.75695 2.76025 6.77084 2.32275C7.78473 1.88525 8.86112 1.6665 10 1.6665C11.1528 1.6665 12.2326 1.88525 13.2396 2.32275C14.2465 2.76025 15.1285 3.35748 15.8854 4.11442C16.6424 4.87136 17.2396 5.75331 17.6771 6.76025C18.1146 7.7672 18.3333 8.84706 18.3333 9.99984C18.3333 11.1387 18.1146 12.2151 17.6771 13.229C17.2396 14.2429 16.6424 15.1283 15.8854 15.8853C15.1285 16.6422 14.2465 17.2394 13.2396 17.6769C12.2326 18.1144 11.1528 18.3332 10 18.3332ZM10 16.6248C10.3611 16.1248 10.6736 15.604 10.9375 15.0623C11.2014 14.5207 11.4167 13.9443 11.5833 13.3332H8.41667C8.58334 13.9443 8.79862 14.5207 9.0625 15.0623C9.32639 15.604 9.63889 16.1248 10 16.6248ZM7.83334 16.2915C7.58334 15.8332 7.36459 15.3575 7.17709 14.8644C6.98959 14.3714 6.83334 13.8609 6.70834 13.3332H4.25001C4.65278 14.0276 5.15625 14.6318 5.76042 15.1457C6.36459 15.6596 7.05556 16.0415 7.83334 16.2915ZM12.1667 16.2915C12.9444 16.0415 13.6354 15.6596 14.2396 15.1457C14.8438 14.6318 15.3472 14.0276 15.75 13.3332H13.2917C13.1667 13.8609 13.0104 14.3714 12.8229 14.8644C12.6354 15.3575 12.4167 15.8332 12.1667 16.2915ZM3.54167 11.6665H6.375C6.33334 11.3887 6.30209 11.1144 6.28125 10.8436C6.26042 10.5728 6.25 10.2915 6.25 9.99984C6.25 9.70817 6.26042 9.42692 6.28125 9.15609C6.30209 8.88525 6.33334 8.61095 6.375 8.33317H3.54167C3.47223 8.61095 3.42014 8.88525 3.38542 9.15609C3.3507 9.42692 3.33334 9.70817 3.33334 9.99984C3.33334 10.2915 3.3507 10.5728 3.38542 10.8436C3.42014 11.1144 3.47223 11.3887 3.54167 11.6665ZM8.04167 11.6665H11.9583C12 11.3887 12.0313 11.1144 12.0521 10.8436C12.0729 10.5728 12.0833 10.2915 12.0833 9.99984C12.0833 9.70817 12.0729 9.42692 12.0521 9.15609C12.0313 8.88525 12 8.61095 11.9583 8.33317H8.04167C8 8.61095 7.96875 8.88525 7.94792 9.15609C7.92709 9.42692 7.91667 9.70817 7.91667 9.99984C7.91667 10.2915 7.92709 10.5728 7.94792 10.8436C7.96875 11.1144 8 11.3887 8.04167 11.6665ZM13.625 11.6665H16.4583C16.5278 11.3887 16.5799 11.1144 16.6146 10.8436C16.6493 10.5728 16.6667 10.2915 16.6667 9.99984C16.6667 9.70817 16.6493 9.42692 16.6146 9.15609C16.5799 8.88525 16.5278 8.61095 16.4583 8.33317H13.625C13.6667 8.61095 13.6979 8.88525 13.7188 9.15609C13.7396 9.42692 13.75 9.70817 13.75 9.99984C13.75 10.2915 13.7396 10.5728 13.7188 10.8436C13.6979 11.1144 13.6667 11.3887 13.625 11.6665ZM13.2917 6.6665H15.75C15.3472 5.97206 14.8438 5.36789 14.2396 4.854C13.6354 4.34011 12.9444 3.95817 12.1667 3.70817C12.4167 4.1665 12.6354 4.6422 12.8229 5.13525C13.0104 5.62831 13.1667 6.13873 13.2917 6.6665ZM8.41667 6.6665H11.5833C11.4167 6.05539 11.2014 5.479 10.9375 4.93734C10.6736 4.39567 10.3611 3.87484 10 3.37484C9.63889 3.87484 9.32639 4.39567 9.0625 4.93734C8.79862 5.479 8.58334 6.05539 8.41667 6.6665ZM4.25001 6.6665H6.70834C6.83334 6.13873 6.98959 5.62831 7.17709 5.13525C7.36459 4.6422 7.58334 4.1665 7.83334 3.70817C7.05556 3.95817 6.36459 4.34011 5.76042 4.854C5.15625 5.36789 4.65278 5.97206 4.25001 6.6665Z" fill="#757575"/>
</svg>
