<svg width="28" height="28" viewBox="0 0 28 28" fill="none" xmlns="http://www.w3.org/2000/svg">
<path d="M4.66675 22.1666V19.8333H7.00008V11.6666C7.00008 10.0527 7.48619 8.61867 8.45842 7.3645C9.43064 6.11034 10.6945 5.28881 12.2501 4.89992V4.08325C12.2501 3.59714 12.4202 3.18395 12.7605 2.84367C13.1008 2.50339 13.514 2.33325 14.0001 2.33325C14.4862 2.33325 14.8994 2.50339 15.2397 2.84367C15.5799 3.18395 15.7501 3.59714 15.7501 4.08325V4.89992C17.3056 5.28881 18.5695 6.11034 19.5417 7.3645C20.514 8.61867 21.0001 10.0527 21.0001 11.6666V19.8333H23.3334V22.1666H4.66675ZM14.0001 25.6666C13.3584 25.6666 12.8091 25.4381 12.3522 24.9812C11.8952 24.5242 11.6667 23.9749 11.6667 23.3333H16.3334C16.3334 23.9749 16.1049 24.5242 15.648 24.9812C15.1911 25.4381 14.6417 25.6666 14.0001 25.6666Z" fill="white"/>
</svg>
