<svg width="18" height="19" viewBox="0 0 18 19" fill="none" xmlns="http://www.w3.org/2000/svg">
<g clip-path="url(#clip0_1319_3270)">
<path d="M7.125 5.14575V7.52075H4.875V5.14575H7.125ZM8.25 3.95825H3.75V8.70825H8.25V3.95825ZM7.125 11.4791V13.8541H4.875V11.4791H7.125ZM8.25 10.2916H3.75V15.0416H8.25V10.2916ZM13.125 5.14575V7.52075H10.875V5.14575H13.125ZM14.25 3.95825H9.75V8.70825H14.25V3.95825ZM9.75 10.2916H10.875V11.4791H9.75V10.2916ZM10.875 11.4791H12V12.6666H10.875V11.4791ZM12 10.2916H13.125V11.4791H12V10.2916ZM9.75 12.6666H10.875V13.8541H9.75V12.6666ZM10.875 13.8541H12V15.0416H10.875V13.8541ZM12 12.6666H13.125V13.8541H12V12.6666ZM13.125 11.4791H14.25V12.6666H13.125V11.4791ZM13.125 13.8541H14.25V15.0416H13.125V13.8541ZM16.5 5.54158H15V3.16659H12.75V1.58325H16.5V5.54158ZM16.5 17.4166V13.4583H15V15.8333H12.75V17.4166H16.5ZM1.5 17.4166H5.25V15.8333H3V13.4583H1.5V17.4166ZM1.5 1.58325V5.54158H3V3.16659H5.25V1.58325H1.5Z" fill="#00AA4F"/>
</g>
<defs>
<clipPath id="clip0_1319_3270">
<rect width="18" height="19" fill="white"/>
</clipPath>
</defs>
</svg>
