<svg width="19" height="19" viewBox="0 0 19 19" fill="none" xmlns="http://www.w3.org/2000/svg">
<g clip-path="url(#clip0_1794_11927)">
<path d="M15.125 7.8125C15.125 9.42617 14.6012 10.9168 13.7188 12.1262L18.1695 16.5805C18.609 17.0199 18.609 17.7336 18.1695 18.173C17.7301 18.6125 17.0164 18.6125 16.577 18.173L12.1262 13.7188C10.9168 14.6047 9.42617 15.125 7.8125 15.125C3.77305 15.125 0.5 11.852 0.5 7.8125C0.5 3.77305 3.77305 0.5 7.8125 0.5C11.852 0.5 15.125 3.77305 15.125 7.8125ZM7.8125 12.875C8.47732 12.875 9.13562 12.7441 9.74984 12.4896C10.364 12.2352 10.9221 11.8623 11.3922 11.3922C11.8623 10.9221 12.2352 10.364 12.4896 9.74984C12.7441 9.13562 12.875 8.47732 12.875 7.8125C12.875 7.14768 12.7441 6.48938 12.4896 5.87516C12.2352 5.26095 11.8623 4.70287 11.3922 4.23277C10.9221 3.76268 10.364 3.38977 9.74984 3.13536C9.13562 2.88095 8.47732 2.75 7.8125 2.75C7.14768 2.75 6.48938 2.88095 5.87516 3.13536C5.26095 3.38977 4.70287 3.76268 4.23277 4.23277C3.76268 4.70287 3.38977 5.26095 3.13536 5.87516C2.88095 6.48938 2.75 7.14768 2.75 7.8125C2.75 8.47732 2.88095 9.13562 3.13536 9.74984C3.38977 10.364 3.76268 10.9221 4.23277 11.3922C4.70287 11.8623 5.26095 12.2352 5.87516 12.4896C6.48938 12.7441 7.14768 12.875 7.8125 12.875Z" fill="#757575"/>
</g>
<defs>
<clipPath id="clip0_1794_11927">
<rect width="18" height="18" fill="white" transform="translate(0.5 0.5)"/>
</clipPath>
</defs>
</svg>
