<svg width="16" height="16" viewBox="0 0 16 16" fill="none" xmlns="http://www.w3.org/2000/svg">
<path d="M5.60004 11.333L8.00004 8.93301L10.4 11.333L11.3334 10.3997L8.93337 7.99967L11.3334 5.59967L10.4 4.66634L8.00004 7.06634L5.60004 4.66634L4.66671 5.59967L7.06671 7.99967L4.66671 10.3997L5.60004 11.333ZM8.00004 14.6663C7.07782 14.6663 6.21115 14.4913 5.40004 14.1413C4.58893 13.7913 3.88337 13.3163 3.28337 12.7163C2.68337 12.1163 2.20837 11.4108 1.85837 10.5997C1.50837 9.78856 1.33337 8.9219 1.33337 7.99967C1.33337 7.07745 1.50837 6.21079 1.85837 5.39967C2.20837 4.58856 2.68337 3.88301 3.28337 3.28301C3.88337 2.68301 4.58893 2.20801 5.40004 1.85801C6.21115 1.50801 7.07782 1.33301 8.00004 1.33301C8.92226 1.33301 9.78893 1.50801 10.6 1.85801C11.4112 2.20801 12.1167 2.68301 12.7167 3.28301C13.3167 3.88301 13.7917 4.58856 14.1417 5.39967C14.4917 6.21079 14.6667 7.07745 14.6667 7.99967C14.6667 8.9219 14.4917 9.78856 14.1417 10.5997C13.7917 11.4108 13.3167 12.1163 12.7167 12.7163C12.1167 13.3163 11.4112 13.7913 10.6 14.1413C9.78893 14.4913 8.92226 14.6663 8.00004 14.6663Z" fill="#D8D8D8"/>
</svg>
